<mxfile host="app.diagrams.net" modified="2022-01-18T03:42:15.500Z" agent="5.0 (Windows NT 10.0; Win64; x64) AppleWebKit/537.36 (KHTML, like Gecko) Chrome/96.0.4664.110 Safari/537.36" etag="dnHwYEbUboScH4aKY0Xa" version="16.2.6" type="github">
  <diagram id="6aKvOTK4UHgkBqWTFx1U" name="第 1 页">
    <mxGraphModel dx="782" dy="436" grid="1" gridSize="10" guides="1" tooltips="1" connect="1" arrows="1" fold="1" page="1" pageScale="1" pageWidth="3300" pageHeight="4681" math="0" shadow="0">
      <root>
        <mxCell id="0" />
        <mxCell id="1" parent="0" />
        <mxCell id="an-6G1_QFWpgGcnKtu2a-1" value="" style="rounded=0;whiteSpace=wrap;html=1;" vertex="1" parent="1">
          <mxGeometry x="150" y="60" width="470" height="300" as="geometry" />
        </mxCell>
        <mxCell id="an-6G1_QFWpgGcnKtu2a-2" value="195" style="text;html=1;resizable=0;autosize=1;align=center;verticalAlign=middle;points=[];fillColor=none;strokeColor=none;rounded=0;" vertex="1" parent="1">
          <mxGeometry x="150" y="40" width="40" height="20" as="geometry" />
        </mxCell>
        <mxCell id="an-6G1_QFWpgGcnKtu2a-3" value="" style="rounded=0;whiteSpace=wrap;html=1;" vertex="1" parent="1">
          <mxGeometry x="190" y="110" width="200" height="130" as="geometry" />
        </mxCell>
        <mxCell id="an-6G1_QFWpgGcnKtu2a-4" value="trex" style="text;html=1;resizable=0;autosize=1;align=center;verticalAlign=middle;points=[];fillColor=none;strokeColor=none;rounded=0;" vertex="1" parent="1">
          <mxGeometry x="200" y="120" width="40" height="20" as="geometry" />
        </mxCell>
        <mxCell id="an-6G1_QFWpgGcnKtu2a-24" style="edgeStyle=orthogonalEdgeStyle;rounded=0;orthogonalLoop=1;jettySize=auto;html=1;entryX=0.125;entryY=0;entryDx=0;entryDy=0;entryPerimeter=0;" edge="1" parent="1" source="an-6G1_QFWpgGcnKtu2a-5" target="an-6G1_QFWpgGcnKtu2a-21">
          <mxGeometry relative="1" as="geometry" />
        </mxCell>
        <mxCell id="an-6G1_QFWpgGcnKtu2a-5" value="UVER&lt;br&gt;ns" style="rounded=0;whiteSpace=wrap;html=1;" vertex="1" parent="1">
          <mxGeometry x="210" y="150" width="70" height="90" as="geometry" />
        </mxCell>
        <mxCell id="an-6G1_QFWpgGcnKtu2a-25" style="edgeStyle=orthogonalEdgeStyle;rounded=0;orthogonalLoop=1;jettySize=auto;html=1;exitX=0.5;exitY=1;exitDx=0;exitDy=0;entryX=0.374;entryY=0.033;entryDx=0;entryDy=0;entryPerimeter=0;" edge="1" parent="1" source="an-6G1_QFWpgGcnKtu2a-6" target="an-6G1_QFWpgGcnKtu2a-21">
          <mxGeometry relative="1" as="geometry" />
        </mxCell>
        <mxCell id="an-6G1_QFWpgGcnKtu2a-6" value="VPC&lt;br&gt;ns" style="rounded=0;whiteSpace=wrap;html=1;" vertex="1" parent="1">
          <mxGeometry x="300" y="150" width="70" height="90" as="geometry" />
        </mxCell>
        <mxCell id="an-6G1_QFWpgGcnKtu2a-30" value="" style="edgeStyle=orthogonalEdgeStyle;rounded=0;orthogonalLoop=1;jettySize=auto;html=1;" edge="1" parent="1" source="an-6G1_QFWpgGcnKtu2a-15">
          <mxGeometry relative="1" as="geometry">
            <mxPoint x="500" y="310" as="targetPoint" />
          </mxGeometry>
        </mxCell>
        <mxCell id="an-6G1_QFWpgGcnKtu2a-15" value="L4FWD" style="rounded=0;whiteSpace=wrap;html=1;" vertex="1" parent="1">
          <mxGeometry x="420" y="110" width="160" height="130" as="geometry" />
        </mxCell>
        <mxCell id="an-6G1_QFWpgGcnKtu2a-35" value="" style="edgeStyle=orthogonalEdgeStyle;rounded=0;orthogonalLoop=1;jettySize=auto;html=1;labelPosition=center;verticalLabelPosition=middle;align=center;verticalAlign=middle;" edge="1" parent="1" source="an-6G1_QFWpgGcnKtu2a-17" target="an-6G1_QFWpgGcnKtu2a-19">
          <mxGeometry relative="1" as="geometry">
            <Array as="points">
              <mxPoint x="385" y="620" />
              <mxPoint x="385" y="620" />
            </Array>
          </mxGeometry>
        </mxCell>
        <mxCell id="an-6G1_QFWpgGcnKtu2a-17" value="Route&lt;div&gt;Switch&lt;/div&gt;" style="shape=mxgraph.cisco.misc.route_switch_processor;html=1;dashed=0;fillColor=#036897;strokeColor=#ffffff;strokeWidth=2;verticalLabelPosition=bottom;verticalAlign=top;rounded=0;shadow=0;comic=0;fontFamily=Verdana;fontSize=12;" vertex="1" parent="1">
          <mxGeometry x="353" y="460" width="64" height="86" as="geometry" />
        </mxCell>
        <mxCell id="an-6G1_QFWpgGcnKtu2a-19" value="" style="rounded=0;whiteSpace=wrap;html=1;" vertex="1" parent="1">
          <mxGeometry x="150" y="640" width="480" height="250" as="geometry" />
        </mxCell>
        <mxCell id="an-6G1_QFWpgGcnKtu2a-20" value="196" style="text;html=1;resizable=0;autosize=1;align=center;verticalAlign=middle;points=[];fillColor=none;strokeColor=none;rounded=0;" vertex="1" parent="1">
          <mxGeometry x="170" y="610" width="40" height="20" as="geometry" />
        </mxCell>
        <mxCell id="an-6G1_QFWpgGcnKtu2a-33" style="edgeStyle=orthogonalEdgeStyle;rounded=0;orthogonalLoop=1;jettySize=auto;html=1;entryX=0.432;entryY=0.109;entryDx=0;entryDy=0;entryPerimeter=0;" edge="1" parent="1" source="an-6G1_QFWpgGcnKtu2a-21" target="an-6G1_QFWpgGcnKtu2a-17">
          <mxGeometry relative="1" as="geometry" />
        </mxCell>
        <mxCell id="an-6G1_QFWpgGcnKtu2a-21" value="net2" style="rounded=0;whiteSpace=wrap;html=1;" vertex="1" parent="1">
          <mxGeometry x="200" y="310" width="360" height="50" as="geometry" />
        </mxCell>
        <mxCell id="an-6G1_QFWpgGcnKtu2a-26" value="VF1" style="text;html=1;resizable=0;autosize=1;align=center;verticalAlign=middle;points=[];fillColor=none;strokeColor=none;rounded=0;" vertex="1" parent="1">
          <mxGeometry x="200" y="280" width="40" height="20" as="geometry" />
        </mxCell>
        <mxCell id="an-6G1_QFWpgGcnKtu2a-27" value="VF2" style="text;html=1;resizable=0;autosize=1;align=center;verticalAlign=middle;points=[];fillColor=none;strokeColor=none;rounded=0;" vertex="1" parent="1">
          <mxGeometry x="290" y="280" width="40" height="20" as="geometry" />
        </mxCell>
        <mxCell id="an-6G1_QFWpgGcnKtu2a-31" value="PF" style="text;html=1;resizable=0;autosize=1;align=center;verticalAlign=middle;points=[];fillColor=none;strokeColor=none;rounded=0;" vertex="1" parent="1">
          <mxGeometry x="470" y="280" width="30" height="20" as="geometry" />
        </mxCell>
        <mxCell id="an-6G1_QFWpgGcnKtu2a-36" value="net2" style="rounded=0;whiteSpace=wrap;html=1;" vertex="1" parent="1">
          <mxGeometry x="200" y="640" width="360" height="50" as="geometry" />
        </mxCell>
        <mxCell id="an-6G1_QFWpgGcnKtu2a-43" style="edgeStyle=orthogonalEdgeStyle;rounded=0;orthogonalLoop=1;jettySize=auto;html=1;entryX=0.391;entryY=0.2;entryDx=0;entryDy=0;entryPerimeter=0;" edge="1" parent="1" source="an-6G1_QFWpgGcnKtu2a-41" target="an-6G1_QFWpgGcnKtu2a-19">
          <mxGeometry relative="1" as="geometry" />
        </mxCell>
        <mxCell id="an-6G1_QFWpgGcnKtu2a-41" value="" style="rounded=0;whiteSpace=wrap;html=1;" vertex="1" parent="1">
          <mxGeometry x="205" y="730" width="265" height="137.5" as="geometry" />
        </mxCell>
        <mxCell id="an-6G1_QFWpgGcnKtu2a-39" value="flowagent" style="rounded=0;whiteSpace=wrap;html=1;" vertex="1" parent="1">
          <mxGeometry x="360" y="800" width="97" height="15" as="geometry" />
        </mxCell>
        <mxCell id="an-6G1_QFWpgGcnKtu2a-37" value="OVS-DPDK" style="rounded=0;whiteSpace=wrap;html=1;" vertex="1" parent="1">
          <mxGeometry x="220" y="755" width="120" height="60" as="geometry" />
        </mxCell>
        <mxCell id="an-6G1_QFWpgGcnKtu2a-38" value="ctagent" style="rounded=0;whiteSpace=wrap;html=1;" vertex="1" parent="1">
          <mxGeometry x="360" y="770" width="97" height="20" as="geometry" />
        </mxCell>
        <mxCell id="an-6G1_QFWpgGcnKtu2a-44" value="VF" style="text;html=1;resizable=0;autosize=1;align=center;verticalAlign=middle;points=[];fillColor=none;strokeColor=none;rounded=0;" vertex="1" parent="1">
          <mxGeometry x="295" y="700" width="30" height="20" as="geometry" />
        </mxCell>
      </root>
    </mxGraphModel>
  </diagram>
</mxfile>
